<svg width="800" height="800" viewBox="0 0 800 800" fill="none" xmlns="http://www.w3.org/2000/svg">
<path d="M189.203 378.746C210.962 378.746 232.211 375.006 252.61 367.866C259.24 365.486 262.64 358.176 260.43 351.547C258.05 344.917 250.741 341.517 244.111 343.727C226.601 350.017 208.072 353.077 189.373 353.077C99.1063 353.077 25.669 279.639 25.669 189.373C25.669 99.1063 99.1063 25.669 189.373 25.669C279.639 25.669 353.077 99.1063 353.077 189.373C353.077 207.732 350.017 225.581 344.237 242.751C341.857 249.381 345.427 256.69 352.057 258.9C358.686 261.28 365.996 257.71 368.206 251.081C375.006 231.191 378.576 210.452 378.576 189.373C378.576 85.1668 293.749 0.169998 189.373 0.169998C84.9968 0.169998 0 85.3368 0 189.713C0 294.089 84.8268 378.746 189.203 378.746Z" fill="white"/>
<path d="M352.397 540.07C345.767 542.45 342.197 549.589 344.577 556.389C350.697 573.728 353.757 591.918 353.757 610.447C353.757 700.714 280.319 774.151 190.053 774.151C99.7862 774.151 26.349 700.714 26.349 610.447C26.349 520.18 99.7862 446.743 190.053 446.743C208.582 446.743 226.771 449.803 244.111 455.923C250.741 458.303 258.05 454.733 260.43 448.103C262.81 441.473 259.24 434.164 252.61 431.784C232.551 424.814 211.472 421.244 190.053 421.244C85.8468 421.244 0.849976 506.071 0.849976 610.447C0.849976 714.823 85.6768 799.65 190.053 799.65C294.429 799.65 379.256 714.823 379.256 610.447C379.256 589.028 375.686 567.949 368.716 547.889C366.336 541.26 359.026 537.69 352.397 540.07Z" fill="white"/>
<path d="M610.957 421.244C589.538 421.244 568.459 424.814 548.399 431.784C541.77 434.164 538.2 441.303 540.58 448.103C542.96 454.733 550.099 458.303 556.899 455.923C574.238 449.803 592.428 446.743 610.957 446.743C701.224 446.743 774.661 520.18 774.661 610.447C774.661 700.714 701.224 774.151 610.957 774.151C520.69 774.151 447.253 700.714 447.253 610.447C447.253 591.918 450.313 573.728 456.433 556.389C458.813 549.759 455.243 542.45 448.613 540.07C441.983 537.69 434.674 541.26 432.294 547.889C425.324 567.949 421.754 589.028 421.754 610.447C421.754 714.653 506.581 799.65 610.957 799.65C715.333 799.65 800.16 714.823 800.16 610.447C800.16 506.071 715.163 421.244 610.957 421.244Z" fill="white"/>
<path d="M448.613 259.92C455.243 257.54 458.813 250.401 456.433 243.601C450.313 226.261 447.253 208.072 447.253 189.543C447.253 99.2762 520.69 25.839 610.957 25.839C701.224 25.839 774.661 99.2762 774.661 189.543C774.661 279.809 701.224 353.247 610.957 353.247C592.428 353.247 574.238 350.187 556.899 344.067C550.269 341.687 542.96 345.257 540.58 351.887C538.2 358.516 541.77 365.826 548.399 368.206C568.459 375.176 589.538 378.746 610.957 378.746C715.163 378.746 800.16 293.919 800.16 189.543C800.16 85.1668 715.163 0.509979 610.957 0.509979C506.751 0.509979 421.754 85.3368 421.754 189.713C421.754 211.132 425.324 232.211 432.294 252.27C434.674 258.73 441.983 262.3 448.613 259.92Z" fill="white"/>
</svg>
